<svg id="SvgjsSvg1006" width="288" height="288" xmlns="http://www.w3.org/2000/svg" version="1.1" xmlns:xlink="http://www.w3.org/1999/xlink" xmlns:svgjs="http://svgjs.com/svgjs"><defs id="SvgjsDefs1007"></defs><g id="SvgjsG1008"><svg xmlns="http://www.w3.org/2000/svg" enable-background="new 0 0 489.838 489.838" viewBox="0 0 489.838 489.838" width="288" height="288"><path d="M481.362 410.144l-137.6-137.7-71.2 71.2 137.7 137.7c11.3 11.3 29.9 11.3 41.2 0l29.9-29.9C492.663 440.044 492.663 421.344 481.362 410.144zM275.663 312.944l37.3-37.3-42.5-42.5c40.2-57.9 34.6-138.1-17-189.7-57.9-57.9-152-57.9-210 0s-57.9 152 0 210c51.6 51.6 131.8 57.2 189.7 17L275.663 312.944zM72.263 224.244c-42-42-42-110.1 0-152 42-42 110.1-42 152 0 42 42 42 110.1 0 152C182.363 266.244 114.263 266.244 72.263 224.244z" fill="#e6e6e6" class="color000 svgShape"></path></svg></g></svg>