<?xml version="1.0" standalone="no"?>
<!DOCTYPE svg PUBLIC "-//W3C//DTD SVG 20010904//EN"
 "http://www.w3.org/TR/2001/REC-SVG-20010904/DTD/svg10.dtd">
<svg version="1.0" xmlns="http://www.w3.org/2000/svg"
 width="700.000000pt" height="700.000000pt" viewBox="0 0 700.000000 700.000000"
 preserveAspectRatio="xMidYMid meet">
<metadata>
Created by potrace 1.14, written by Peter Selinger 2001-2017
</metadata>
<g transform="translate(0.000000,700.000000) scale(0.100000,-0.100000)"
fill="#000000" stroke="none">
<path d="M4699 6025 c-1 0 -2 -138 -3 -307 -1 -188 -5 -311 -11 -316 -6 -5
-41 -14 -80 -21 -73 -13 -283 -78 -300 -92 -18 -17 -45 -9 -112 35 -186 120
-462 222 -673 250 -25 3 -67 8 -94 12 -129 16 -322 8 -496 -22 -474 -81 -909
-370 -1182 -785 -136 -207 -209 -396 -272 -708 -14 -68 -26 -124 -28 -126 -2
-1 -61 -11 -133 -23 -178 -29 -178 -29 -285 -64 -538 -175 -939 -651 -1017
-1208 -15 -106 -6 -441 12 -471 3 -3 7 -24 11 -45 8 -57 69 -234 106 -312 88
-185 224 -360 393 -507 17 -14 70 -53 119 -86 192 -130 373 -200 616 -240 44
-7 647 -12 1845 -15 1924 -4 1886 -5 2082 49 431 119 781 450 921 872 27 79
34 105 49 175 30 139 28 382 -5 533 l-18 88 30 39 30 40 40 -24 c23 -13 59
-34 81 -46 22 -13 54 -31 70 -41 17 -11 37 -22 45 -26 7 -4 78 -44 157 -90 78
-46 146 -83 151 -83 5 0 15 12 23 27 8 15 43 77 78 138 115 198 141 244 141
252 -1 9 -22 22 -317 192 -117 68 -213 127 -213 132 0 5 11 43 25 84 55 163
80 326 78 520 -1 181 -24 320 -83 504 -11 35 -20 65 -20 67 0 2 19 14 43 27
23 14 113 66 200 116 151 88 268 154 295 168 7 3 -240 423 -249 423 -5 0 -66
-33 -136 -74 -71 -40 -187 -108 -260 -150 -73 -42 -134 -76 -137 -76 -3 0 -56
51 -118 114 -189 189 -342 291 -582 386 -83 33 -256 80 -294 80 -12 0 -25 7
-28 15 -4 8 -7 151 -8 317 l-1 303 -242 0 c-134 0 -244 0 -244 0z"/>
</g>
</svg>
