<svg id="SvgjsSvg1001" width="288" height="288" xmlns="http://www.w3.org/2000/svg" version="1.1" xmlns:xlink="http://www.w3.org/1999/xlink" xmlns:svgjs="http://svgjs.com/svgjs"><defs id="SvgjsDefs1002"></defs><g id="SvgjsG1008"><svg xmlns="http://www.w3.org/2000/svg" width="288" height="288" viewBox="0 0 25 25"><path d="M12.5 0c-4.315 0-7.813 3.498-7.813 7.813 0 7.813 7.813 17.188 7.813 17.188s7.813-9.375 7.813-17.188c0-4.315-3.498-7.813-7.813-7.813zM12.5 12.598c-2.643 0-4.785-2.142-4.785-4.785s2.142-4.785 4.785-4.785 4.785 2.142 4.785 4.785-2.142 4.785-4.785 4.785zM9.473 7.813c0-1.672 1.355-3.027 3.027-3.027s3.027 1.355 3.027 3.027c0 1.672-1.355 3.027-3.027 3.027s-3.027-1.355-3.027-3.027z" fill="#0466c8" class="color000 svgShape"></path></svg></g></svg>