<?xml version="1.0" encoding="iso-8859-1"?>
<!-- Generator: Adobe Illustrator 19.0.0, SVG Export Plug-In . SVG Version: 6.00 Build 0)  -->
<svg version="1.1" id="Layer_1" xmlns="http://www.w3.org/2000/svg" xmlns:xlink="http://www.w3.org/1999/xlink" x="0px" y="0px"
	 viewBox="0 0 512 512" style="enable-background:new 0 0 512 512;" xml:space="preserve">
<path style="fill:#8CCFDE;" d="M423.472,236.786c-0.628,0-1.248,0.034-1.873,0.048c0.606-4.96,0.923-10.008,0.923-15.131
	c0-68.231-55.312-123.544-123.544-123.544c-42.999,0-80.861,21.971-102.988,55.295c-17.892-8.578-37.936-13.385-59.103-13.385
	C61.287,140.069,0,201.354,0,276.955s61.287,136.886,136.887,136.886h286.584c48.893,0,88.528-39.635,88.528-88.528
	C512,276.421,472.364,236.786,423.472,236.786z"/>
<path style="opacity:0.1;enable-background:new    ;" d="M443.743,393.571H157.158c-75.601,0-136.887-61.287-136.887-136.886
	c0-32.637,11.428-62.6,30.493-86.123C19.799,195.659,0,233.991,0,276.955c0,75.601,61.287,136.886,136.887,136.886h286.584
	c29.622,0,55.825-14.563,71.896-36.903C480.833,387.394,463.014,393.571,443.743,393.571z"/>
<path style="opacity:0.1;enable-background:new    ;" d="M253.149,189.617c-5.343-22.677-17.562-44.083-34.493-61.768
	c-8.68,7.437-16.323,16.052-22.666,25.605c-0.615-0.295,32.981,17.108,49.354,39.976
	C248.128,197.314,254.245,194.269,253.149,189.617z"/>
<g>
</g>
<g>
</g>
<g>
</g>
<g>
</g>
<g>
</g>
<g>
</g>
<g>
</g>
<g>
</g>
<g>
</g>
<g>
</g>
<g>
</g>
<g>
</g>
<g>
</g>
<g>
</g>
<g>
</g>
</svg>
