<?xml version="1.0" encoding="iso-8859-1"?>
<!-- Generator: Adobe Illustrator 19.0.0, SVG Export Plug-In . SVG Version: 6.00 Build 0)  -->
<svg version="1.1" id="Capa_1" xmlns="http://www.w3.org/2000/svg" xmlns:xlink="http://www.w3.org/1999/xlink" x="0px" y="0px"
	 viewBox="0 0 489.838 489.838" style="enable-background:new 0 0 489.838 489.838;" xml:space="preserve">
<g>
	<g>
		<path d="M481.362,410.144l-137.6-137.7l-71.2,71.2l137.7,137.7c11.3,11.3,29.9,11.3,41.2,0l29.9-29.9
			C492.663,440.044,492.663,421.344,481.362,410.144z"/>
		<path d="M275.663,312.944l37.3-37.3l-42.5-42.5c40.2-57.9,34.6-138.1-17-189.7c-57.9-57.9-152-57.9-210,0s-57.9,152,0,210
			c51.6,51.6,131.8,57.2,189.7,17L275.663,312.944z M72.263,224.244c-42-42-42-110.1,0-152c42-42,110.1-42,152,0
			c42,42,42,110.1,0,152C182.363,266.244,114.263,266.244,72.263,224.244z"/>
	</g>
</g>
<g>
</g>
<g>
</g>
<g>
</g>
<g>
</g>
<g>
</g>
<g>
</g>
<g>
</g>
<g>
</g>
<g>
</g>
<g>
</g>
<g>
</g>
<g>
</g>
<g>
</g>
<g>
</g>
<g>
</g>
</svg>
